<?xml version="1.0" encoding="utf-8"?>
<!-- Generator: Adobe Illustrator 15.1.0, SVG Export Plug-In . SVG Version: 6.00 Build 0)  -->
<!DOCTYPE svg PUBLIC "-//W3C//DTD SVG 1.1//EN" "http://www.w3.org/Graphics/SVG/1.1/DTD/svg11.dtd">
<svg version="1.1" id="Calque_1" xmlns="http://www.w3.org/2000/svg" xmlns:xlink="http://www.w3.org/1999/xlink" x="0px" y="0px"
	 width="595.28px" height="841.89px" viewBox="0 0 595.28 841.89" enable-background="new 0 0 595.28 841.89" xml:space="preserve">
<g>
	<path fill-rule="evenodd" clip-rule="evenodd" fill="#FFFFFF" d="M170.996,260.89c85.333,0,170.666,0,256,0
		c0,85.998,0,171.994,0,257.992c-85.666,0-171.331,0-256.996,0c0-85.002,0-170.002,0-255.004
		C169.915,262.465,169.835,261.058,170.996,260.89z M205.86,303.723c-18.628,19.339-35.128,48.495-34.864,87.658
		c0.286,42.264,16.802,68.6,37.852,89.649c21.686,21.686,51.115,37.403,91.642,36.856c66.535-0.899,129.043-53.848,125.51-132.483
		c-1.777-39.533-20.027-67.608-40.841-87.657c-20.867-20.1-55.036-37.2-95.626-33.868
		C250.075,267.118,225.521,283.311,205.86,303.723z"/>
	<path fill-rule="evenodd" clip-rule="evenodd" d="M289.533,263.878c40.59-3.332,74.759,13.768,95.626,33.868
		c20.813,20.049,39.063,48.124,40.841,87.657c3.533,78.635-58.975,131.583-125.51,132.483
		c-40.527,0.547-69.956-15.171-91.642-36.856c-21.05-21.05-37.566-47.386-37.852-89.649c-0.265-39.163,16.236-68.319,34.864-87.658
		C225.521,283.311,250.075,267.118,289.533,263.878z M262.638,390.384c-10.072,19.48-23.483,40.931-30.879,59.767
		c42.825-21.922,90.33-39.165,133.479-60.763c-46.211-17.208-91.537-40.614-134.475-57.774
		C241.864,350.728,251.675,371.132,262.638,390.384z"/>
	<path fill-rule="evenodd" clip-rule="evenodd" fill="#FFFFFF" d="M230.763,331.614c42.938,17.161,88.264,40.566,134.475,57.774
		c-43.148,21.598-90.653,38.841-133.479,60.763c7.396-18.836,20.808-40.287,30.879-59.767
		C251.675,371.132,241.864,350.728,230.763,331.614z"/>
</g>
</svg>
