<?xml version="1.0" encoding="utf-8"?>
<!-- Generator: Adobe Illustrator 15.1.0, SVG Export Plug-In . SVG Version: 6.00 Build 0)  -->
<!DOCTYPE svg PUBLIC "-//W3C//DTD SVG 1.1//EN" "http://www.w3.org/Graphics/SVG/1.1/DTD/svg11.dtd">
<svg version="1.1" id="Calque_1" xmlns="http://www.w3.org/2000/svg" xmlns:xlink="http://www.w3.org/1999/xlink" x="0px" y="0px"
	 width="575.5px" height="576px" viewBox="0 0 575.5 576" enable-background="new 0 0 575.5 576" xml:space="preserve">
<g>
	<path fill-rule="evenodd" clip-rule="evenodd" d="M482.399,94.214c62.991,62.448,80.929,136.354,80.405,197.865
		c-0.282,33.197-6.627,63.997-19.27,96.191c-12.52,31.883-32.484,64.724-62.163,94.336c-63.136,62.994-134.95,80.169-197.166,79.765
		c-64.333-0.418-131.149-21.826-190.556-80.763c-30.905-30.66-51.523-66.079-63.514-99.438
		c-11.968-33.296-17.956-65.959-16.921-97.758C15.31,220.04,33.813,153.709,93.307,93.829
		c31.146-31.349,67.738-52.237,100.137-64.155C258.467,5.754,323.448,7.75,387.393,32.022
		C419.015,44.026,451.948,64.027,482.399,94.214z M398.656,105.362c-36.762-22.217-75.326-30.9-111.492-30.339
		c-48.457,0.751-102.848,14.539-152.878,64.895c-22.271,22.416-37.106,48.739-46.141,73.206
		c-9.306,25.203-13.153,49.744-12.98,74.977c0.336,49.091,15.684,106.396,64.866,153.548
		c45.985,44.089,98.482,59.286,147.833,59.442c48.488,0.152,104.976-14.97,152.878-64.896
		c45.006-46.906,60.044-99.016,60.462-148.125c0.403-47.554-16.055-106.137-65.536-153.578
		C424.907,124.178,411.182,112.933,398.656,105.362z"/>
	<path fill-rule="evenodd" clip-rule="evenodd" d="M466.994,287.262c-58.275,25.187-119.379,48.507-178.751,73.175
		c-59.741-23.691-119.431-48.586-179.19-71.877c58.408-25.658,119.611-48.707,179.102-73.497
		C347.748,239.58,407.368,263.503,466.994,287.262z M299.844,239.742c-1.274,31.951-0.852,63.975-0.125,96.013
		c39.084-16.175,79.935-31.771,117.914-48.278C378.37,271.566,339.088,256.095,299.844,239.742z"/>
</g>
<path fill="none" enable-background="new    " d="z"/>
</svg>
